<svg t="1700570465653" class="icon" viewBox="0 0 1024 1024" version="1.1" xmlns="http://www.w3.org/2000/svg" p-id="29577"><path d="M149.333333 64c-47.36 0-85.333333 37.973333-85.333333 85.333333v469.333334c0 47.36 37.973333 85.333333 85.333333 85.333333h85.333334v-85.333333h-85.333334v-469.333334h469.333334v85.333334h85.333333v-85.333334c0-47.36-37.973333-85.333333-85.333333-85.333333h-469.333334m256 256c-47.36 0-85.333333 37.973333-85.333333 85.333333v85.333334h85.333333v-85.333334h85.333334v-85.333333h-85.333334m170.666667 0v85.333333h42.666667v42.666667h85.333333v-128h-128m213.333333 0v85.333333h85.333334v469.333334h-469.333334v-85.333334h-85.333333v85.333334c0 47.36 37.973333 85.333333 85.333333 85.333333h469.333334c47.36 0 85.333333-37.973333 85.333333-85.333333v-469.333334c0-47.36-37.973333-85.333333-85.333333-85.333333h-85.333334m-170.666666 213.333333v85.333334h-85.333334v85.333333h85.333334c47.36 0 85.333333-37.973333 85.333333-85.333333v-85.333334h-85.333333m-298.666667 42.666667v128h128v-85.333333h-42.666667v-42.666667z" fill="currentColor" p-id="29578"></path></svg>